<svg width="13" height="8" viewBox="0 0 13 8" fill="none" xmlns="http://www.w3.org/2000/svg">
<path d="M0.00021553 1.11601C0.00021553 1.42158 0.106502 1.66737 0.319075 1.87994L5.19496 6.88204C5.4806 7.16769 5.75961 7.2939 6.11168 7.30054C6.45711 7.30054 6.7494 7.16769 7.0284 6.88204L11.9109 1.88658C12.1169 1.66737 12.2231 1.41494 12.2231 1.11601C12.2231 0.50486 11.7316 0 11.1204 0C10.8149 0 10.5358 0.132858 10.3033 0.358716L6.10504 4.69653L1.92001 0.358716C1.68751 0.126215 1.40851 0 1.10294 0C0.498433 0 0.00021553 0.50486 0.00021553 1.11601Z" fill="white"/>
</svg>
