<svg width="24" height="24" viewBox="0 0 24 24" fill="none" xmlns="http://www.w3.org/2000/svg">
<path fill-rule="evenodd" clip-rule="evenodd" d="M11.4419 5.55818C11.686 5.80226 11.686 6.19799 11.4419 6.44206L6.50888 11.3751H19C19.3452 11.3751 19.625 11.6549 19.625 12.0001C19.625 12.3453 19.3452 12.6251 19 12.6251H6.50888L11.4419 17.5582C11.686 17.8023 11.686 18.198 11.4419 18.4421C11.1979 18.6861 10.8021 18.6861 10.5581 18.4421L4.55806 12.4421C4.44085 12.3249 4.375 12.1659 4.375 12.0001C4.375 11.8344 4.44085 11.6754 4.55806 11.5582L10.5581 5.55818C10.8021 5.3141 11.1979 5.3141 11.4419 5.55818Z" fill="white"/>
</svg>
