<svg width="30" height="30" viewBox="0 0 30 30" fill="none" xmlns="http://www.w3.org/2000/svg">
<path d="M15 1.25C12.2805 1.25 9.62209 2.05642 7.36092 3.56729C5.09974 5.07816 3.33737 7.22562 2.29666 9.7381C1.25596 12.2506 0.983662 15.0153 1.51421 17.6825C2.04476 20.3497 3.35432 22.7997 5.27729 24.7227C7.20026 26.6457 9.65028 27.9552 12.3175 28.4858C14.9848 29.0163 17.7494 28.744 20.2619 27.7033C22.7744 26.6626 24.9218 24.9003 26.4327 22.6391C27.9436 20.3779 28.75 17.7195 28.75 15C28.7457 11.3546 27.2957 7.85973 24.718 5.28203C22.1403 2.70434 18.6454 1.2543 15 1.25ZM20.3025 18.5363C20.4219 18.6516 20.5171 18.7895 20.5826 18.942C20.6481 19.0945 20.6826 19.2585 20.6841 19.4245C20.6855 19.5905 20.6539 19.7551 20.591 19.9087C20.5282 20.0623 20.4354 20.2019 20.318 20.3192C20.2006 20.4366 20.0611 20.5294 19.9074 20.5923C19.7538 20.6551 19.5892 20.6868 19.4233 20.6853C19.2573 20.6839 19.0933 20.6494 18.9408 20.5839C18.7882 20.5184 18.6503 20.4231 18.535 20.3037L15 16.7675L11.465 20.3037C11.2293 20.5314 10.9135 20.6574 10.5858 20.6546C10.258 20.6517 9.94449 20.5203 9.71273 20.2885C9.48097 20.0568 9.34951 19.7432 9.34666 19.4155C9.34382 19.0878 9.46981 18.772 9.69751 18.5363L13.2325 15L9.69751 11.4637C9.57812 11.3484 9.48289 11.2105 9.41738 11.058C9.35187 10.9055 9.31739 10.7415 9.31594 10.5755C9.3145 10.4095 9.34613 10.2449 9.40898 10.0913C9.47183 9.93769 9.56465 9.79812 9.68201 9.68076C9.79938 9.56339 9.93894 9.47057 10.0926 9.40772C10.2462 9.34487 10.4108 9.31324 10.5768 9.31469C10.7427 9.31613 10.9068 9.35061 11.0593 9.41612C11.2118 9.48163 11.3497 9.57686 11.465 9.69625L15 13.2325L18.535 9.69625C18.6503 9.57686 18.7882 9.48163 18.9408 9.41612C19.0933 9.35061 19.2573 9.31613 19.4233 9.31469C19.5892 9.31324 19.7538 9.34487 19.9074 9.40772C20.0611 9.47057 20.2006 9.56339 20.318 9.68076C20.4354 9.79812 20.5282 9.93769 20.591 10.0913C20.6539 10.2449 20.6855 10.4095 20.6841 10.5755C20.6826 10.7415 20.6481 10.9055 20.5826 11.058C20.5171 11.2105 20.4219 11.3484 20.3025 11.4637L16.7675 15L20.3025 18.5363Z" fill="white"/>
</svg>
