<svg width="30" height="30" viewBox="0 0 30 30" fill="none" xmlns="http://www.w3.org/2000/svg">
<path d="M15.0015 2.49969C21.9052 2.49969 27.5015 8.09595 27.5015 14.9997C27.5015 21.9034 21.9052 27.4997 15.0015 27.4997C8.09772 27.4997 2.50146 21.9034 2.50146 14.9997C2.50146 8.09595 8.09772 2.49969 15.0015 2.49969ZM15.0015 4.99969C12.3493 4.99969 9.80576 6.05326 7.9304 7.92863C6.05503 9.80399 5.00146 12.3475 5.00146 14.9997C5.00146 17.6519 6.05503 20.1954 7.9304 22.0708C9.80576 23.9461 12.3493 24.9997 15.0015 24.9997C17.6536 24.9997 20.1972 23.9461 22.0725 22.0708C23.9479 20.1954 25.0015 17.6519 25.0015 14.9997C25.0015 12.3475 23.9479 9.80399 22.0725 7.92863C20.1972 6.05326 17.6536 4.99969 15.0015 4.99969ZM15.0015 7.49969C15.3076 7.49974 15.6031 7.61214 15.8319 7.81559C16.0607 8.01904 16.2069 8.29938 16.2427 8.60344L16.2515 8.74969V14.4822L19.6352 17.8659C19.8594 18.0909 19.9896 18.3927 19.9993 18.7102C20.0089 19.0276 19.8974 19.3368 19.6874 19.575C19.4774 19.8132 19.1845 19.9626 18.8684 19.9927C18.5522 20.0228 18.2365 19.9315 17.9852 19.7372L17.8677 19.6334L14.1177 15.8834C13.9234 15.689 13.7987 15.4359 13.7627 15.1634L13.7515 14.9997V8.74969C13.7515 8.41817 13.8832 8.10023 14.1176 7.86581C14.352 7.63139 14.6699 7.49969 15.0015 7.49969Z" fill="#D9D9D9"/>
</svg>
