<svg width="14" height="14" viewBox="0 0 14 14" fill="none" xmlns="http://www.w3.org/2000/svg">
<g clip-path="url(#clip0_425_5335)">
<path d="M6.97577 0C5.5959 0 4.24702 0.409179 3.0997 1.17579C1.95238 1.94241 1.05815 3.03203 0.5301 4.30686C0.00204636 5.58169 -0.136116 6.98448 0.133083 8.33784C0.402282 9.6912 1.06675 10.9343 2.04247 11.91C3.01818 12.8858 4.26132 13.5502 5.61468 13.8194C6.96803 14.0886 8.37082 13.9505 9.64566 13.4224C10.9205 12.8944 12.0101 12.0001 12.7767 10.8528C13.5433 9.7055 13.9525 8.35661 13.9525 6.97674C13.9505 5.12701 13.2148 3.35361 11.9069 2.04565C10.5989 0.737691 8.82551 0.00200063 6.97577 0ZM6.97577 12.7907C5.82588 12.7907 4.70181 12.4497 3.74571 11.8109C2.78961 11.172 2.04442 10.264 1.60438 9.20165C1.16433 8.13929 1.0492 6.9703 1.27353 5.8425C1.49786 4.7147 2.05159 3.67875 2.86468 2.86566C3.67778 2.05256 4.71373 1.49884 5.84153 1.2745C6.96932 1.05017 8.13831 1.16531 9.20068 1.60535C10.263 2.0454 11.1711 2.79059 11.8099 3.74669C12.4487 4.70279 12.7897 5.82685 12.7897 6.97674C12.788 8.51818 12.1749 9.996 11.085 11.086C9.99503 12.1759 8.51721 12.789 6.97577 12.7907Z" fill="#E8E9F1" fill-opacity="0.8"/>
<path d="M6.9769 2.90625C6.82271 2.90625 6.67483 2.9675 6.56579 3.07654C6.45676 3.18557 6.39551 3.33345 6.39551 3.48765V8.13881C6.39551 8.293 6.45676 8.44088 6.56579 8.54992C6.67483 8.65895 6.82271 8.7202 6.9769 8.7202C7.1311 8.7202 7.27898 8.65895 7.38801 8.54992C7.49704 8.44088 7.5583 8.293 7.5583 8.13881V3.48765C7.5583 3.33345 7.49704 3.18557 7.38801 3.07654C7.27898 2.9675 7.1311 2.90625 6.9769 2.90625Z" fill="#E8E9F1" fill-opacity="0.8"/>
<path d="M7.5583 10.4647C7.5583 10.1436 7.298 9.8833 6.9769 9.8833C6.65581 9.8833 6.39551 10.1436 6.39551 10.4647C6.39551 10.7858 6.65581 11.0461 6.9769 11.0461C7.298 11.0461 7.5583 10.7858 7.5583 10.4647Z" fill="#E8E9F1" fill-opacity="0.8"/>
</g>
<defs>
<clipPath id="clip0_425_5335">
<rect width="13.9535" height="13.9535" fill="white"/>
</clipPath>
</defs>
</svg>
