<svg width="16" height="16" viewBox="0 0 16 16" fill="none" xmlns="http://www.w3.org/2000/svg">
<path d="M5.66685 6.33327C5.66685 6.70061 5.75218 7.04861 5.90418 7.35794C5.57751 7.77661 5.37418 8.29594 5.34685 8.86194C4.71951 8.20327 4.33351 7.31261 4.33351 6.33394C4.33351 4.05994 6.41485 2.26261 8.77285 2.74661C10.1608 3.03194 11.2855 4.14994 11.5815 5.53594C11.6708 5.95461 11.6875 6.36461 11.6422 6.75661C11.6035 7.08861 11.3122 7.33394 10.9775 7.33394H10.9475C10.5528 7.33394 10.2755 6.98261 10.3188 6.59061C10.3482 6.32727 10.3328 6.05061 10.2655 5.76861C10.0668 4.93327 9.38551 4.25661 8.54885 4.06394C7.02485 3.71394 5.66618 4.86861 5.66618 6.33394L5.66685 6.33327ZM3.07351 5.46994C3.25618 4.40794 3.77551 3.43994 4.58085 2.68461C5.60018 1.72927 6.93485 1.25727 8.33418 1.34394C10.9695 1.51461 13.0302 3.82327 12.9995 6.58727C12.9868 7.74461 12.0175 8.66594 10.8608 8.66594H9.25685C9.09418 8.11327 8.58885 7.70661 7.98351 7.70661C7.24685 7.70661 6.65018 8.30327 6.65018 9.03994C6.65018 9.77661 7.24685 10.3733 7.98351 10.3733C8.34218 10.3733 8.66685 10.2299 8.90618 9.99927H10.8608C12.7402 9.99927 14.3062 8.50261 14.3328 6.62394C14.3822 3.14327 11.7675 0.22994 8.42018 0.0139398C6.64418 -0.101394 4.95951 0.50194 3.66951 1.71261C2.67018 2.64927 2.00551 3.88927 1.76618 5.22327C1.69351 5.62861 2.01418 6.00061 2.42551 6.00061C2.74018 6.00061 3.02085 5.78127 3.07351 5.47061V5.46994ZM8.00018 11.3333C5.53685 11.3333 3.40551 12.8613 2.69685 15.1346C2.58685 15.4859 2.78351 15.8599 3.13485 15.9699C3.48551 16.0759 3.85951 15.8826 3.96951 15.5319C4.49551 13.8453 6.15218 12.6666 7.99951 12.6666C9.84685 12.6666 11.5042 13.8453 12.0295 15.5319C12.1188 15.8173 12.3815 15.9999 12.6662 15.9999C12.7322 15.9999 12.7982 15.9899 12.8648 15.9699C13.2162 15.8599 13.4122 15.4859 13.3028 15.1346C12.5942 12.8613 10.4628 11.3333 7.99951 11.3333H8.00018Z" fill="white" fill-opacity="0.8"/>
</svg>
