<svg width="16" height="16" viewBox="0 0 16 16" fill="none" xmlns="http://www.w3.org/2000/svg">
<g clip-path="url(#clip0_425_5539)">
<path d="M8.00022 1C4.14025 1 1 4.14036 1 8.00022C1 11.8601 4.14025 15.0004 8.00022 15.0004C9.12785 15.0004 10.2507 14.7248 11.2474 14.2032C11.3544 14.1472 11.3958 14.015 11.3398 13.9079C11.2838 13.8009 11.1519 13.759 11.0445 13.8157C10.1101 14.3044 9.05747 14.5629 8.00025 14.5629C4.38155 14.5629 1.43752 11.6189 1.43752 8.00022C1.43752 4.38155 4.38155 1.43752 8.00022 1.43752C11.6189 1.43752 14.5629 4.38155 14.5629 8.00022C14.5629 9.06282 14.3165 10.0778 13.8305 11.0169C13.7749 11.1244 13.8169 11.2564 13.9243 11.3117C14.0314 11.3674 14.1636 11.3251 14.2191 11.2181C14.7376 10.2162 15.0004 9.13354 15.0004 8.00022C15.0004 4.14036 11.8602 1 8.00022 1Z" fill="#D2D3D4" stroke="#D2D3D4" stroke-width="0.8"/>
<path d="M11.6888 5.19552C10.848 4.35469 9.47999 4.35488 8.63913 5.19552L7.99984 5.8349L7.36055 5.19549C6.51971 4.35466 5.15174 4.35486 4.31087 5.19549C3.46805 6.03832 3.46783 7.40299 4.31118 8.2457L7.84516 11.7779C7.88789 11.8206 7.94386 11.842 7.99984 11.842C8.05581 11.842 8.11179 11.8206 8.15451 11.7779L11.6885 8.2457C12.5317 7.40321 12.5318 6.03854 11.6888 5.19552ZM7.99984 11.3139L4.62053 7.93638C3.94846 7.26453 3.94816 6.17691 4.62022 5.50484C5.29039 4.83468 6.38073 4.83457 7.05123 5.50484L7.84519 6.29889C7.92722 6.38092 8.07248 6.38092 8.15454 6.29889L8.9485 5.50484C9.61855 4.83448 10.7092 4.83448 11.3795 5.50484C12.0515 6.1768 12.0514 7.26442 11.3792 7.93638L7.99984 11.3139ZM11.38 13.012H12.6025V14.2344C12.6025 14.3553 12.7004 14.4531 12.8212 14.4531C12.942 14.4531 13.04 14.3553 13.04 14.2344V13.012H14.2625C14.3833 13.012 14.4812 12.9142 14.4812 12.7933C14.4812 12.6723 14.3833 12.5745 14.2625 12.5745H13.04V11.3519C13.04 11.231 12.942 11.1332 12.8212 11.1332C12.7004 11.1332 12.6025 11.231 12.6025 11.3519V12.5745H11.38C11.2592 12.5745 11.1612 12.6723 11.1612 12.7933C11.1612 12.9142 11.2592 13.012 11.38 13.012Z" fill="#D2D3D4" stroke="#D2D3D4" stroke-width="0.8"/>
</g>
<defs>
<clipPath id="clip0_425_5539">
<rect width="16" height="16" fill="white"/>
</clipPath>
</defs>
</svg>
