<svg width="16" height="16" viewBox="0 0 16 16" fill="none" xmlns="http://www.w3.org/2000/svg">
<path d="M10.4319 7.94908C10.4492 7.9497 10.4665 7.95155 10.4832 7.95402C10.7299 7.97628 10.9778 7.97876 11.2246 7.96083C12.0964 7.89776 12.9503 7.58488 13.6738 7.03024C13.7598 6.9647 13.8612 6.93316 13.9614 6.93316L15.0317 6.93192C15.2938 6.93192 15.5066 7.14464 15.5066 7.4068C15.5066 7.66897 15.2938 7.88168 15.0317 7.88168H14.1166C13.2725 8.49013 12.2913 8.83453 11.2913 8.90688C11.1572 8.91677 11.0218 8.9211 10.887 8.9211V12.1606C10.887 12.5019 10.7472 12.8123 10.5234 13.0368C10.2989 13.2612 9.98852 13.4003 9.64719 13.4003H1.33254C0.991228 13.4003 0.680816 13.2606 0.456356 13.0368C0.231897 12.8123 0.0927734 12.5019 0.0927734 12.1606V6.90714C0.0927734 6.5683 0.231899 6.25789 0.456356 6.03283L0.458211 6.03097C0.684523 5.80589 0.993685 5.66739 1.33253 5.66739H3.66545L5.54644 3.46743C5.76286 3.21391 6.01762 3.01977 6.30204 2.88868C6.58833 2.75698 6.90121 2.68896 7.23324 2.68896H8.49527C8.5874 2.68896 8.68139 2.69515 8.78402 2.70875C8.88234 2.72174 8.97447 2.74029 9.06722 2.76502L13.7183 4.01034H15.0323C15.2945 4.01034 15.5072 4.22306 15.5072 4.48522C15.5072 4.74739 15.2945 4.9601 15.0323 4.9601H13.6578C13.6176 4.95948 13.5761 4.95453 13.5353 4.9434L8.82421 3.68138C8.76361 3.66469 8.71043 3.65356 8.66159 3.64737C8.61769 3.64181 8.56266 3.63872 8.49526 3.63872H7.23324C7.03722 3.63872 6.85791 3.67582 6.699 3.7494C6.53824 3.8236 6.39231 3.93552 6.26616 4.0833L4.91201 5.6675H5.82652C5.97245 5.47644 6.15238 5.30083 6.34839 5.15924C6.62109 4.96137 6.9358 4.81916 7.25054 4.77525L7.3235 4.77092C7.71553 4.76041 8.13228 4.80926 8.53606 4.91066C8.93983 5.01207 9.33865 5.16912 9.69481 5.37441C9.87721 5.47891 9.96316 5.6873 9.92174 5.88268C9.87351 6.11579 9.73376 6.29943 9.55383 6.42496C9.37884 6.54677 9.1618 6.61478 8.959 6.61725H6.18397C6.08751 6.61849 5.9997 6.65806 5.93602 6.72113C5.87233 6.78667 5.83214 6.87633 5.83214 6.97403C5.83214 7.05009 5.85687 7.12182 5.89892 7.18056L5.90139 7.18365L5.90386 7.18736C5.91438 7.20096 5.92551 7.21395 5.93787 7.22632C6.0028 7.29124 6.09184 7.33205 6.18953 7.33205H8.43649C8.53357 7.33205 8.62323 7.36111 8.69866 7.41058C9.24526 7.71046 9.83577 7.88978 10.4343 7.951L10.4319 7.94908ZM4.93055 6.61657H1.33129C1.2509 6.61657 1.17794 6.64872 1.12661 6.70004L1.12476 6.7019C1.07344 6.75322 1.04128 6.82618 1.04128 6.90657V6.98819H4.88115V6.97273C4.88115 6.84906 4.89847 6.72972 4.93062 6.61595L4.93055 6.61657ZM5.30835 7.93857H1.04125V9.16349H9.93715V8.83701C9.38004 8.73869 8.83342 8.5538 8.31718 8.28051H6.18766C5.85006 8.28051 5.5409 8.15066 5.30839 7.9392L5.30835 7.93857ZM1.04125 10.1132V12.1606C1.04125 12.2397 1.07402 12.3127 1.12657 12.3652C1.17913 12.4178 1.2521 12.4506 1.33125 12.4506H9.6459C9.72505 12.4506 9.79801 12.4178 9.85057 12.3652C9.90313 12.3127 9.9359 12.2397 9.9359 12.1606V10.1132H1.04H1.04125Z" fill="white" fill-opacity="0.8"/>
</svg>
