<svg width="16" height="16" viewBox="0 0 16 16" fill="none" xmlns="http://www.w3.org/2000/svg">
<path d="M8 15.0715C7.80158 15.0713 7.60651 15.0203 7.43333 14.9235L5.18667 13.6755C4.0697 13.0545 3.13896 12.1463 2.49079 11.0449C1.84262 9.94343 1.50056 8.68881 1.5 7.41082V3.94682C1.49997 3.65857 1.60683 3.38054 1.79992 3.16652C1.99301 2.9525 2.2586 2.81768 2.54533 2.78815C3.43922 2.6934 4.31897 2.4945 5.16667 2.19548C5.94389 1.92074 6.68947 1.5636 7.39067 1.13015C7.57409 1.0179 7.78496 0.958496 8 0.958496C8.21504 0.958496 8.42591 1.0179 8.60933 1.13015C9.3106 1.56347 10.0562 1.92061 10.8333 2.19548C11.681 2.4945 12.5608 2.6934 13.4547 2.78815C13.7414 2.81768 14.007 2.9525 14.2001 3.16652C14.3932 3.38054 14.5 3.65857 14.5 3.94682V7.41082C14.4994 8.68881 14.1574 9.94343 13.5092 11.0449C12.861 12.1463 11.9303 13.0545 10.8133 13.6755L8.56667 14.9241C8.39345 15.0208 8.19837 15.0715 8 15.0715ZM8 1.95815C7.97067 1.95789 7.94183 1.96573 7.91667 1.98082C7.15466 2.45179 6.3445 2.83999 5.5 3.13882C4.57884 3.46394 3.62277 3.68008 2.65133 3.78282C2.61007 3.78632 2.57162 3.80519 2.5436 3.83568C2.51558 3.86617 2.50002 3.90607 2.5 3.94748V7.41148C2.50036 8.51116 2.79461 9.59077 3.35231 10.5385C3.91 11.4863 4.71086 12.2678 5.672 12.8021L7.91867 14.0501C7.9433 14.064 7.97108 14.0713 7.99933 14.0713C8.02759 14.0713 8.05537 14.064 8.08 14.0501L10.328 12.8021C11.2891 12.2678 12.09 11.4863 12.6477 10.5385C13.2054 9.59077 13.4996 8.51116 13.5 7.41148V3.94682C13.5 3.9054 13.4844 3.8655 13.4564 3.83501C13.4284 3.80452 13.3899 3.78566 13.3487 3.78215C12.3772 3.67941 11.4212 3.46327 10.5 3.13815C9.65555 2.83975 8.8454 2.452 8.08333 1.98148C8.0583 1.96603 8.02942 1.95795 8 1.95815Z" fill="#D2D3D4"/>
<path d="M7.66673 9.50016C7.54424 9.50027 7.42602 9.45516 7.33473 9.3735L5.83473 8.04016C5.74172 7.95055 5.68699 7.82843 5.68201 7.69937C5.67703 7.57032 5.72218 7.44434 5.80801 7.34783C5.89384 7.25131 6.01368 7.19176 6.14243 7.18163C6.27119 7.1715 6.39887 7.21159 6.49873 7.2935L7.63473 8.30283L9.80206 5.9915C9.84669 5.94249 9.90061 5.90284 9.96069 5.87486C10.0208 5.84688 10.0858 5.83113 10.1521 5.82851C10.2183 5.8259 10.2844 5.83648 10.3465 5.85964C10.4086 5.8828 10.4655 5.91808 10.5138 5.96342C10.5621 6.00876 10.601 6.06326 10.6281 6.12375C10.6552 6.18424 10.67 6.24952 10.6716 6.31578C10.6732 6.38204 10.6617 6.44796 10.6376 6.50972C10.6136 6.57147 10.5774 6.62782 10.5314 6.6755L8.0314 9.34216C7.98471 9.39212 7.92825 9.43193 7.86551 9.45912C7.80277 9.4863 7.7351 9.50027 7.66673 9.50016Z" fill="#D2D3D4"/>
</svg>
