<svg width="16" height="15" viewBox="0 0 16 15" fill="none" xmlns="http://www.w3.org/2000/svg">
<path d="M13.6693 0.835656C13.2567 0.835656 12.8825 1.00383 12.6118 1.27501L12.6105 1.27631C12.3404 1.54684 12.1718 1.92231 12.1718 2.3356V4.41173H15.1662V2.3356C15.1662 1.92231 14.9983 1.54749 14.7276 1.27631L14.7263 1.27501C14.4562 1.00449 14.082 0.835656 13.6693 0.835656ZM6.57764 7.17834C6.34791 7.17834 6.16113 6.99125 6.16113 6.76114C6.16113 6.53103 6.34791 6.34395 6.57764 6.34395H9.8486C10.0783 6.34395 10.2651 6.53103 10.2651 6.76114C10.2651 6.99125 10.0783 7.17834 9.8486 7.17834H6.57764ZM6.57764 5.29312C6.34791 5.29312 6.16113 5.10603 6.16113 4.87593C6.16113 4.64582 6.34791 4.45873 6.57764 4.45873H9.8486C10.0783 4.45873 10.2651 4.64582 10.2651 4.87593C10.2651 5.10603 10.0783 5.29312 9.8486 5.29312H6.57764ZM6.57764 3.40791C6.34791 3.40791 6.16113 3.22082 6.16113 2.99071C6.16113 2.7606 6.34791 2.57352 6.57764 2.57352H9.8486C10.0783 2.57352 10.2651 2.7606 10.2651 2.99071C10.2651 3.22082 10.0783 3.40791 9.8486 3.40791H6.57764ZM5.09448 12.7934C4.86474 12.7934 4.67796 12.6063 4.67796 12.3762C4.67796 12.1461 4.86474 11.959 5.09448 11.959H6.02643L6.64469 10.8717C6.75793 10.6723 7.01173 10.6019 7.21088 10.7153C7.27856 10.7537 7.33127 10.8085 7.36707 10.8717L7.52651 11.1527L7.93651 10.4311C8.04975 10.2316 8.30356 10.1612 8.5027 10.2746C8.60357 10.332 8.6719 10.4259 8.69924 10.5302L8.9524 11.4877H9.84855C10.0783 11.4877 10.2651 11.6748 10.2651 11.9049C10.2651 12.135 10.0783 12.3221 9.84855 12.3221H8.6322C8.44802 12.3208 8.27947 12.1976 8.23065 12.0105L8.15581 11.727L7.88833 12.1976C7.85188 12.2615 7.79982 12.3163 7.73213 12.3547C7.53299 12.4682 7.27917 12.3984 7.16594 12.1983L7.0065 11.9173L6.6453 12.5529C6.57892 12.695 6.43509 12.7941 6.26784 12.7941L5.09448 12.7934ZM2.32334 11.7596C2.09361 11.7596 1.90683 11.5725 1.90683 11.3424C1.90683 11.1123 2.09361 10.9252 2.32334 10.9252H4.19048C4.42021 10.9252 4.60699 11.1123 4.60699 11.3424C4.60699 11.5725 4.42021 11.7596 4.19048 11.7596H2.32334ZM2.32334 9.06283C2.09361 9.06283 1.90683 8.87575 1.90683 8.64564C1.90683 8.41553 2.09361 8.22845 2.32334 8.22845H9.84855C10.0783 8.22845 10.2651 8.41553 10.2651 8.64564C10.2651 8.87575 10.0783 9.06283 9.84855 9.06283H2.32334ZM12.172 5.24484V14.5828C12.172 14.8129 11.9852 15 11.7555 15H0.416512C0.186781 15 0 14.8129 0 14.5828V2.33433C0 1.69289 0.262269 1.10882 0.684646 0.685766C1.10702 0.262715 1.68947 0 2.33052 0H13.6695C14.3086 0 14.891 0.262699 15.3141 0.685766L15.3154 0.68707C15.7377 1.11144 16 1.69421 16 2.33433V4.82765C16 5.05776 15.8132 5.24485 15.5835 5.24485L12.172 5.24484ZM11.8882 0.834271H2.32995C1.91864 0.834271 1.54444 1.0031 1.27304 1.27493C1.00165 1.54675 0.833108 1.92158 0.833108 2.33356V14.1648H11.339V2.33356C11.339 1.76448 11.5453 1.24103 11.8882 0.834271Z" fill="white" fill-opacity="0.8"/>
</svg>
