<svg width="16" height="16" viewBox="0 0 16 16" fill="none" xmlns="http://www.w3.org/2000/svg">
<g clip-path="url(#clip0_425_5500)">
<path d="M5.15016 9.0347C5.72012 9.0347 6.18216 8.57266 6.18216 8.0027C6.18216 7.43275 5.72012 6.9707 5.15016 6.9707C4.58021 6.9707 4.11816 7.43275 4.11816 8.0027C4.11816 8.57266 4.58021 9.0347 5.15016 9.0347Z" fill="white" fill-opacity="0.8"/>
<path fill-rule="evenodd" clip-rule="evenodd" d="M3.98242 5.08558V1.8107C3.98242 1.39996 4.14548 1.00642 4.43581 0.716087C4.72615 0.425751 5.11969 0.262695 5.53042 0.262695H11.7816C12.1008 0.262695 12.407 0.389287 12.6326 0.615639L15.6695 3.65247C15.8958 3.87814 16.0224 4.1843 16.0224 4.50353V14.1947C16.0224 14.6054 15.8594 14.999 15.569 15.2893C15.2787 15.5796 14.8852 15.7427 14.4744 15.7427H5.53042C5.11969 15.7427 4.72615 15.5796 4.43581 15.2893C4.14548 14.999 3.98242 14.6054 3.98242 14.1947V10.9198C4.31404 11.0196 4.65941 11.0829 5.01442 11.0959V14.1947C5.01442 14.3316 5.06877 14.463 5.16578 14.5593C5.2621 14.6563 5.39351 14.7107 5.53042 14.7107H14.4744C14.6113 14.7107 14.7427 14.6563 14.8391 14.5593C14.9361 14.463 14.9904 14.3316 14.9904 14.1947V4.50353C14.9904 4.45812 14.9725 4.41409 14.9402 4.38175L11.9034 1.34492C11.871 1.31258 11.827 1.2947 11.7816 1.2947H5.53042C5.39351 1.2947 5.2621 1.34905 5.16578 1.44606C5.06877 1.54238 5.01442 1.67378 5.01442 1.8107V4.90945C4.65941 4.92252 4.31404 4.98582 3.98242 5.08558Z" fill="#D2D3D4" stroke="#D2D3D4" stroke-width="0.2"/>
<path d="M11.8508 1.12245C11.8508 1.0033 11.9476 0.906445 12.0668 0.906445C12.1859 0.906445 12.2828 1.0033 12.2828 1.12245V3.53045C12.2828 3.79107 12.4942 4.00244 12.7548 4.00244H15.1628C15.2819 4.00244 15.3788 4.0993 15.3788 4.21845C15.3788 4.33759 15.2819 4.43445 15.1628 4.43445H12.7548C12.2552 4.43445 11.8508 4.03006 11.8508 3.53045V1.12245Z" fill="#D2D3D4" stroke="#D2D3D4" stroke-width="0.6"/>
<path d="M9.23085 7.40891L9.23062 7.40912L9.23798 7.41649C9.5303 7.75015 9.53199 8.24782 9.24352 8.58338L9.23094 8.59715C8.87377 8.98831 8.29464 9.54342 7.57854 9.99884C6.86089 10.4552 6.02592 10.7987 5.15042 10.7987C4.27495 10.7987 3.44 10.4551 2.72243 9.99853C2.00642 9.54295 1.42747 8.98768 1.07067 8.59657L1.07091 8.59635L1.06354 8.58899C0.771228 8.25533 0.769532 7.75766 1.058 7.4221L1.07058 7.40832C1.42778 7.01714 2.00674 6.46203 2.72266 6.00662C3.44014 5.55023 4.27492 5.20674 5.15042 5.20674C6.02625 5.20674 6.86138 5.5504 7.57902 6.00696C8.29511 6.46253 8.87405 7.0178 9.23085 7.40891ZM1.39062 7.69849L1.39042 7.69831L1.38222 7.70808C1.23764 7.88039 1.2383 8.13415 1.38915 8.30511L1.38911 8.30514L1.39265 8.30901C1.70726 8.65325 2.21552 9.16303 2.85431 9.58822C3.49142 10.0123 4.28014 10.3667 5.15042 10.3667C6.02103 10.3667 6.80991 10.0123 7.44739 9.58796C8.08653 9.1625 8.59531 8.6522 8.91091 8.30698L8.91111 8.30717L8.91931 8.29739C9.06389 8.12509 9.06323 7.87133 8.91238 7.70036L8.91241 7.70033L8.90887 7.69646C8.59426 7.35222 8.086 6.84244 7.44711 6.41724C6.80989 5.99315 6.02102 5.63874 5.15042 5.63874C4.28012 5.63874 3.49141 5.99318 2.85403 6.41753C2.21498 6.84299 1.70621 7.35328 1.39062 7.69849Z" fill="#D2D3D4" stroke="#D2D3D4" stroke-width="0.6"/>
</g>
<defs>
<clipPath id="clip0_425_5500">
<rect width="16" height="16" fill="white"/>
</clipPath>
</defs>
</svg>
