<svg width="22" height="22" viewBox="0 0 22 22" fill="none" xmlns="http://www.w3.org/2000/svg">
<path d="M20.6248 5.61461H17.7282C15.4413 5.62064 13.1687 5.25375 10.9998 4.52836C8.83895 3.80229 6.57403 3.43383 4.29442 3.43753H1.37484C1.109 3.43753 0.916504 3.59794 0.916504 3.79961V15.7163C0.933459 15.8232 0.990022 15.9198 1.07494 15.9868C1.15987 16.0539 1.26693 16.0866 1.37484 16.0784H4.29442C6.57383 16.0771 8.83836 16.4455 10.9998 17.1692C13.1634 17.8971 15.4317 18.2655 17.7144 18.26H20.6248C20.733 18.2694 20.8406 18.2371 20.9258 18.1698C21.0109 18.1025 21.0672 18.0053 21.0832 17.8979V5.95836C21.0622 5.85484 21.0039 5.76264 20.9194 5.69926C20.8349 5.63589 20.7301 5.60576 20.6248 5.61461Z" fill="white" stroke="#45413C" stroke-width="0.458333" stroke-linecap="round" stroke-linejoin="round"/>
<path d="M0.916504 6.97128H4.29442C6.57403 6.96758 8.83895 7.33604 10.9998 8.06211C13.167 8.79613 15.44 9.16929 17.7282 9.16669H21.1061V5.95836C21.0891 5.85147 21.0326 5.75488 20.9476 5.68779C20.8627 5.6207 20.7557 5.58803 20.6478 5.59628H17.7282C15.4423 5.60822 13.1697 5.24752 10.9998 4.52836C8.83895 3.80229 6.57403 3.43383 4.29442 3.43753H1.37484C1.109 3.43753 0.916504 3.59794 0.916504 3.79961V6.97128Z" fill="#FF8A14" stroke="#45413C" stroke-width="0.458333" stroke-linecap="round" stroke-linejoin="round"/>
<path d="M0.916504 15.7208C0.933459 15.8277 0.990022 15.9243 1.07494 15.9914C1.15987 16.0585 1.26693 16.0911 1.37484 16.0829H4.29442C6.57358 16.0801 8.8381 16.447 10.9998 17.1691C13.1634 17.897 15.4317 18.2655 17.7144 18.26H20.6248C20.8907 18.26 21.0832 18.0995 21.0832 17.8979V14.7262H17.7282C15.4408 14.7332 13.1678 14.3647 10.9998 13.6354C8.83869 12.9109 6.57377 12.544 4.29442 12.5491H0.916504V15.7208Z" fill="#46B000" stroke="#45413C" stroke-width="0.458333" stroke-linecap="round" stroke-linejoin="round"/>
<path d="M9.23851 11.6581C9.35638 11.9219 9.51983 12.1624 9.71942 12.3655C9.91901 12.5687 10.1508 12.7306 10.4013 12.8417C10.6518 12.9529 10.9162 13.0112 11.1791 13.0133C11.4419 13.0153 11.6981 12.9611 11.9327 12.8537C12.1674 12.7464 12.3759 12.588 12.5462 12.3877C12.7165 12.1874 12.8451 11.9493 12.9248 11.687C13.0044 11.4247 13.0335 11.1435 13.0102 10.8597C12.9869 10.5759 12.9118 10.295 12.7892 10.0333C12.6714 9.76951 12.5079 9.52906 12.3083 9.3259C12.1087 9.12274 11.877 8.96089 11.6264 8.84971C11.3759 8.73852 11.1115 8.68022 10.8487 8.67816C10.5858 8.6761 10.3297 8.73032 10.095 8.8377C9.86033 8.94508 9.65184 9.10348 9.48156 9.30375C9.31128 9.50401 9.1826 9.74217 9.10295 10.0044C9.02331 10.2667 8.99428 10.5479 9.01755 10.8317C9.04082 11.1156 9.11592 11.3965 9.23851 11.6581Z" stroke="#009FD9" stroke-width="0.458333" stroke-linecap="round" stroke-linejoin="round"/>
<path d="M10.1468 11.2429C10.2052 11.3705 10.2854 11.4865 10.3829 11.5844C10.4804 11.6822 10.5933 11.7601 10.7151 11.8134C10.8369 11.8667 10.9652 11.8945 11.0927 11.8951C11.2203 11.8958 11.3445 11.8693 11.4583 11.8172C11.5722 11.765 11.6734 11.6883 11.7563 11.5913C11.8391 11.4944 11.9019 11.3791 11.9411 11.2521C11.9804 11.125 11.9952 10.9887 11.9848 10.851C11.9745 10.7132 11.9391 10.5766 11.8807 10.4491C11.8223 10.3216 11.7421 10.2055 11.6446 10.1077C11.5472 10.0098 11.4343 9.93193 11.3125 9.87859C11.1908 9.82524 11.0625 9.79744 10.935 9.79677C10.8074 9.79609 10.6832 9.82255 10.5694 9.87465C10.4555 9.92674 10.3543 10.0034 10.2714 10.1004C10.1886 10.1973 10.1257 10.3126 10.0865 10.4396C10.0473 10.5666 10.0324 10.7029 10.0427 10.8406C10.0531 10.9784 10.0884 11.1149 10.1468 11.2425" fill="#009FD9"/>
<path d="M11.014 8.70837V12.9892M9.01562 10.67L13.0077 11.0275M12.3752 9.40962L9.66646 12.3017M9.58854 9.21712L12.3752 12.43" stroke="#009FD9" stroke-width="0.458333" stroke-linecap="round" stroke-linejoin="round"/>
<path opacity="0.15" d="M5.729 20.8541C5.729 21.0365 6.28432 21.2113 7.2728 21.3403C8.26127 21.4692 9.60193 21.5416 10.9998 21.5416C12.3977 21.5416 13.7384 21.4692 14.7269 21.3403C15.7154 21.2113 16.2707 21.0365 16.2707 20.8541C16.2707 20.6718 15.7154 20.4969 14.7269 20.368C13.7384 20.2391 12.3977 20.1666 10.9998 20.1666C9.60193 20.1666 8.26127 20.2391 7.2728 20.368C6.28432 20.4969 5.729 20.6718 5.729 20.8541Z" fill="#45413C"/>
</svg>
