<svg width="12" height="12" viewBox="0 0 12 12" fill="none" xmlns="http://www.w3.org/2000/svg">
<path d="M10.7739 5.04057H6.93622V1.20285C6.93622 0.948397 6.83514 0.704362 6.65521 0.524434C6.47528 0.344506 6.23125 0.243423 5.97679 0.243423C5.72234 0.243423 5.4783 0.344506 5.29837 0.524434C5.11845 0.704362 5.01736 0.948397 5.01736 1.20285V5.04057H1.17964C0.925188 5.04057 0.681154 5.14165 0.501226 5.32158C0.321298 5.50151 0.220215 5.74555 0.220215 6C0.220215 6.25446 0.321298 6.49849 0.501226 6.67842C0.681154 6.85835 0.925188 6.95943 1.17964 6.95943H5.01736V10.7972C5.01736 11.0516 5.11845 11.2956 5.29837 11.4756C5.4783 11.6555 5.72234 11.7566 5.97679 11.7566C6.23125 11.7566 6.47528 11.6555 6.65521 11.4756C6.83514 11.2956 6.93622 11.0516 6.93622 10.7972V6.95943H10.7739C11.0284 6.95943 11.2724 6.85835 11.4524 6.67842C11.6323 6.49849 11.7334 6.25446 11.7334 6C11.7334 5.74555 11.6323 5.50151 11.4524 5.32158C11.2724 5.14165 11.0284 5.04057 10.7739 5.04057Z" fill="white"/>
</svg>
