<svg width="18" height="18" viewBox="0 0 18 18" fill="none" xmlns="http://www.w3.org/2000/svg">
<path d="M14.9049 8.16145C14.5131 8.16145 14.1952 7.82557 14.1952 7.4115C14.1952 5.30775 13.4201 3.33077 12.0126 1.84268C11.7351 1.54948 11.7351 1.07557 12.0126 0.782227C12.2901 0.489023 12.7387 0.489023 13.0162 0.782227C14.692 2.55294 15.6146 4.90732 15.6146 7.4115C15.6146 7.82557 15.2967 8.16145 14.9049 8.16145ZM0.709712 8.16145C0.318026 8.16145 0 7.82557 0 7.4115C0 4.90732 0.922705 2.55294 2.59844 0.782227C2.87591 0.489023 3.32452 0.489023 3.60199 0.782227C3.87956 1.07557 3.87956 1.54948 3.60199 1.84268C2.19448 3.33 1.41956 5.30779 1.41956 7.4115C1.41956 7.82557 1.10153 8.16145 0.709712 8.16145ZM14.4642 12.6848C13.391 11.7262 12.7756 10.3252 12.7756 8.84095V6.75C12.7756 4.11082 10.9203 1.92604 8.51707 1.56006V0.749953C8.51707 0.335215 8.19905 0 7.80736 0C7.41554 0 7.09752 0.335215 7.09752 0.749953V1.56006C4.69364 1.92604 2.83898 4.11082 2.83898 6.75V8.84099C2.83898 10.3252 2.22362 11.7263 1.14418 12.6907C1.00786 12.8138 0.898422 12.9666 0.823414 13.1387C0.748405 13.3108 0.709613 13.498 0.709712 13.6875C0.709712 14.4113 1.26685 15 1.95187 15H13.6628C14.3477 15 14.9049 14.4113 14.9049 13.6875C14.9049 13.3035 14.7466 12.9406 14.4642 12.6848ZM7.80736 18C9.09267 18 10.168 17.0317 10.415 15.75H5.19971C5.44663 17.0317 6.52191 18 7.80736 18Z" fill="white"/>
</svg>
