<svg width="22" height="22" viewBox="0 0 22 22" fill="none" xmlns="http://www.w3.org/2000/svg">
<path d="M7.26351 9.55556L14.5968 5.77778M7.26351 12.4444L14.5968 16.2222M0.930176 11C0.930176 11.8841 1.28137 12.7319 1.90649 13.357C2.53161 13.9821 3.37945 14.3333 4.26351 14.3333C5.14756 14.3333 5.99541 13.9821 6.62053 13.357C7.24565 12.7319 7.59684 11.8841 7.59684 11C7.59684 10.1159 7.24565 9.2681 6.62053 8.64298C5.99541 8.01786 5.14756 7.66667 4.26351 7.66667C3.37945 7.66667 2.53161 8.01786 1.90649 8.64298C1.28137 9.2681 0.930176 10.1159 0.930176 11ZM14.2635 4.33333C14.2635 5.21739 14.6147 6.06524 15.2398 6.69036C15.8649 7.31548 16.7128 7.66667 17.5968 7.66667C18.4809 7.66667 19.3287 7.31548 19.9539 6.69036C20.579 6.06524 20.9302 5.21739 20.9302 4.33333C20.9302 3.44928 20.579 2.60143 19.9539 1.97631C19.3287 1.35119 18.4809 1 17.5968 1C16.7128 1 15.8649 1.35119 15.2398 1.97631C14.6147 2.60143 14.2635 3.44928 14.2635 4.33333ZM14.2635 17.6667C14.2635 18.5507 14.6147 19.3986 15.2398 20.0237C15.8649 20.6488 16.7128 21 17.5968 21C18.4809 21 19.3287 20.6488 19.9539 20.0237C20.579 19.3986 20.9302 18.5507 20.9302 17.6667C20.9302 16.7826 20.579 15.9348 19.9539 15.3096C19.3287 14.6845 18.4809 14.3333 17.5968 14.3333C16.7128 14.3333 15.8649 14.6845 15.2398 15.3096C14.6147 15.9348 14.2635 16.7826 14.2635 17.6667Z" stroke="white" stroke-width="1.63291" stroke-linecap="round" stroke-linejoin="round"/>
</svg>
